# xmcd
#
# Track frame offsets:
#	150
#	17062
#	35310
#	50874
#	73196
#	92933
#	111540
#	129873
#	145210
#	160733
#	175892
#	191145
#	208945
#	227184
#	245485
#	263581
#	281304
#	299037
#	315195
#	332139
#
# Disc length: 4631 seconds
#
# Revision: 1
# Processed by: cddbd v1.5.1PL0 Copyright (c) Steve Scherf et al.
# Submitted via: audiograbber 1.83.01
#
DISCID=34121514
DTITLE=Various Artist - Body and Soul Cd1
DYEAR=2002
DGENRE=Blues
TTITLE0=Ginuwine  - Just Because (Album Version)
TTITLE1=Mary J. Blige  - Family Affair (Edit)
TTITLE2=Mis-Teeq  - One Night Stand (Stargate Radio Edit)
TTITLE3=Jennifer Lopez  - I'm Real (Album Version)
TTITLE4=Blaque  - Can't Get It Back (Album Version)
TTITLE5=Next  - Wifey (Clean Version - Radio Mix)
TTITLE6=Outkast  - So Fresh, So Clean (Clean Version - Radio Mix)
TTITLE7=Precious  - It's Gonna Be My Way
TTITLE8=Lucy Pearl  - Dance Tonight (Linslee Campbell Mix)
TTITLE9=Jamiroquai  - You Give Me Something (Commercial Edit)
TTITLE10=Anastacia  - Paid My Dues (Album Version)
TTITLE11=Nivea  - Don't Mess With The Radio
TTITLE12=Toni Braxton  - He Wasn't Man Enough (Radio Edit)
TTITLE13=Kandi  - Don't Think I'm Not (Lp Version)
TTITLE14=Ruff Endz  - No More (Radio Edit)
TTITLE15=Stephen Galloway  - Darkbell (Radio Cut)
TTITLE16=Craig David  - 7 Days (Radio Edit)
TTITLE17=Montell Jordon  - Get It On Tonite (Mainstream Radio Edit)
TTITLE18=Mary Mary Featuring B.b. Jay  - I Sings (Radio Edit Without Rap)
TTITLE19=Barry White  - You're The First, The Last, My Everything (Album Versio
TTITLE19=n)
EXTD=
EXTT0=
EXTT1=
EXTT2=
EXTT3=
EXTT4=
EXTT5=
EXTT6=
EXTT7=
EXTT8=
EXTT9=
EXTT10=
EXTT11=
EXTT12=
EXTT13=
EXTT14=
EXTT15=
EXTT16=
EXTT17=
EXTT18=
EXTT19=
PLAYORDER=
